<svg width="16" height="16" viewBox="0 0 16 16" fill="none" xmlns="http://www.w3.org/2000/svg">
<circle cx="8" cy="8" r="7.5" stroke="#9A9A9A"/>
<path d="M7.22515 10.4816V10.2131C7.22847 9.68944 7.28647 9.26354 7.39916 8.93541C7.51185 8.60729 7.67757 8.33054 7.89632 8.10516C8.11838 7.87646 8.39347 7.65771 8.7216 7.44891C8.96687 7.28982 9.17236 7.12244 9.33808 6.94678C9.50711 6.7678 9.63472 6.57225 9.72089 6.36013C9.81038 6.14469 9.85512 5.91103 9.85512 5.65914C9.85512 5.30118 9.77061 4.98797 9.60157 4.7195C9.43585 4.45104 9.21047 4.24389 8.92544 4.09806C8.6404 3.94891 8.32387 3.87433 7.97586 3.87433C7.64442 3.87433 7.33453 3.94725 7.04617 4.09308C6.76114 4.2356 6.52747 4.44772 6.34518 4.72945C6.1662 5.00786 6.06843 5.35255 6.05186 5.76354H5.11222C5.1288 5.21666 5.26469 4.74271 5.5199 4.34166C5.7751 3.94062 6.11649 3.63073 6.54404 3.41198C6.9716 3.18991 7.44887 3.07888 7.97586 3.07888C8.52605 3.07888 9.00995 3.19323 9.42757 3.42192C9.84518 3.6473 10.1716 3.95719 10.407 4.35161C10.6423 4.74271 10.76 5.19181 10.76 5.69891C10.76 6.03366 10.7069 6.33859 10.6009 6.61368C10.4948 6.88878 10.3357 7.14233 10.1236 7.37433C9.91478 7.60634 9.65294 7.82509 9.33808 8.03058C9.03978 8.22945 8.8028 8.42665 8.62714 8.6222C8.45148 8.81775 8.32553 9.04147 8.2493 9.29337C8.17307 9.54195 8.13164 9.84853 8.12501 10.2131V10.4816H7.22515ZM7.70242 13.4745C7.50687 13.4745 7.33784 13.4049 7.19532 13.2657C7.05612 13.1232 6.98651 12.9541 6.98651 12.7586C6.98651 12.5597 7.05612 12.3907 7.19532 12.2515C7.33784 12.1123 7.50687 12.0427 7.70242 12.0427C7.89797 12.0427 8.06535 12.1123 8.20455 12.2515C8.34707 12.3907 8.41833 12.5597 8.41833 12.7586C8.41833 12.8878 8.38519 13.0071 8.3189 13.1165C8.25593 13.2259 8.16975 13.3137 8.06038 13.38C7.95432 13.443 7.835 13.4745 7.70242 13.4745Z" fill="#9A9A9A"/>
</svg>
