<svg width="21" height="16" viewBox="0 0 21 16" fill="none" xmlns="http://www.w3.org/2000/svg">
<path fill-rule="evenodd" clip-rule="evenodd" d="M17.1875 0H3.4375C2.52312 0 1.65 0.364375 1.00375 1.00375C0.364375 1.65 0 2.52312 0 3.4375V3.44155V11.6875C0 12.6019 0.364375 13.475 1.00375 14.1213C1.65 14.7606 2.52312 15.125 3.4375 15.125H17.1875C18.1019 15.125 18.975 14.7606 19.6213 14.1213C20.2606 13.475 20.625 12.6019 20.625 11.6875V3.4375C20.625 2.52312 20.2606 1.65 19.6213 1.00375C18.975 0.364375 18.1019 0 17.1875 0ZM1.375 4.549V11.6875C1.375 12.2375 1.595 12.76 1.98 13.145C2.365 13.53 2.8875 13.75 3.4375 13.75H17.1875C17.7375 13.75 18.26 13.53 18.645 13.145C19.03 12.76 19.25 12.2375 19.25 11.6875V4.54762L11.8511 8.25009C11.8477 8.25009 11.8442 8.25181 11.8408 8.25353C11.8374 8.25525 11.8339 8.25697 11.8305 8.25697C11.3561 8.47696 10.8336 8.58696 10.3111 8.58009C9.78862 8.58696 9.26612 8.47696 8.79175 8.25697C8.78831 8.25697 8.78487 8.25525 8.78144 8.25353C8.778 8.25181 8.77456 8.25009 8.77112 8.25009L1.375 4.549ZM19.21 3.03375L11.2393 7.01259C10.9505 7.15009 10.6342 7.21196 10.3111 7.20509C9.988 7.21196 9.67175 7.15009 9.383 7.01259L1.41476 3.035C1.49428 2.63677 1.69049 2.26951 1.98 1.98C2.365 1.595 2.8875 1.375 3.4375 1.375H17.1875C17.7375 1.375 18.26 1.595 18.645 1.98C18.9342 2.26921 19.1303 2.636 19.21 3.03375ZM7.36175 11.1995C7.23113 11.0757 7.05925 11.0001 6.87363 11.0001H3.43613C3.2505 11.0001 3.07862 11.0757 2.948 11.1995C2.82425 11.3301 2.74863 11.502 2.74863 11.6876C2.74863 11.8732 2.82425 12.0451 2.948 12.1757C3.07862 12.2995 3.2505 12.3751 3.43613 12.3751H6.87363C7.05925 12.3751 7.23113 12.2995 7.36175 12.1757C7.4855 12.0451 7.56113 11.8732 7.56113 11.6876C7.56113 11.502 7.4855 11.3301 7.36175 11.1995Z" fill="#ABABAB"/>
</svg>
