<svg width="22" height="16" viewBox="0 0 22 16" fill="none" xmlns="http://www.w3.org/2000/svg">
<path fill-rule="evenodd" clip-rule="evenodd" d="M4.125 0.4375L17.875 0.4375C18.7894 0.4375 19.6625 0.801875 20.3088 1.44125C20.9481 2.0875 21.3125 2.96062 21.3125 3.875V12.125C21.3125 13.0394 20.9481 13.9125 20.3088 14.5588C19.6625 15.1981 18.7894 15.5625 17.875 15.5625L4.125 15.5625C3.21062 15.5625 2.3375 15.1981 1.69125 14.5588C1.05188 13.9125 0.6875 13.0394 0.6875 12.125L0.6875 3.875C0.6875 2.96062 1.05188 2.0875 1.69125 1.44125C2.3375 0.801875 3.21062 0.4375 4.125 0.4375ZM4.125 1.8125L17.875 1.8125C18.425 1.8125 18.9475 2.0325 19.3325 2.4175C19.7175 2.8025 19.9375 3.325 19.9375 3.875V12.125C19.9375 12.675 19.7175 13.1975 19.3325 13.5825C18.9475 13.9675 18.425 14.1875 17.875 14.1875L4.125 14.1875C3.575 14.1875 3.0525 13.9675 2.6675 13.5825C2.2825 13.1975 2.0625 12.675 2.0625 12.125L2.0625 3.875C2.0625 3.325 2.2825 2.8025 2.6675 2.4175C3.0525 2.0325 3.575 1.8125 4.125 1.8125Z" fill="white"/>
<path d="M20.3157 3.26321C20.4807 3.18071 20.6663 3.16696 20.8451 3.22196C21.017 3.28384 21.1613 3.40759 21.237 3.56571C21.3195 3.73071 21.3332 3.91634 21.2782 4.09509C21.2163 4.26696 21.0926 4.41134 20.9345 4.48697L12.5401 8.68759C12.5332 8.68759 12.5263 8.69447 12.5195 8.69447C12.0451 8.91446 11.5226 9.02446 11.0001 9.01759C10.4776 9.02446 9.95509 8.91446 9.48071 8.69447C9.47384 8.69447 9.46696 8.68759 9.46009 8.68759L1.06571 4.48697C0.90759 4.41134 0.78384 4.26696 0.721965 4.09509C0.666965 3.91634 0.680715 3.73071 0.763215 3.56571C0.83884 3.40759 0.983215 3.28384 1.15509 3.22196C1.33384 3.16696 1.51946 3.18071 1.68446 3.26321L10.072 7.45009C10.3607 7.58759 10.677 7.64946 11.0001 7.64259C11.3232 7.64946 11.6395 7.58759 11.9282 7.45009L20.3157 3.26321ZM7.56259 11.4376C7.74821 11.4376 7.92009 11.5132 8.05071 11.637C8.17447 11.7676 8.25009 11.9395 8.25009 12.1251C8.25009 12.3107 8.17447 12.4826 8.05071 12.6132C7.92009 12.737 7.74821 12.8126 7.56259 12.8126H4.12509C3.93947 12.8126 3.76759 12.737 3.63696 12.6132C3.51321 12.4826 3.43759 12.3107 3.43759 12.1251C3.43759 11.9395 3.51321 11.7676 3.63696 11.637C3.76759 11.5132 3.93947 11.4376 4.12509 11.4376H7.56259Z" fill="white"/>
</svg>
