<svg width="372" height="34" viewBox="0 0 372 34" fill="none" xmlns="http://www.w3.org/2000/svg">
<path d="M189.326 0.0255715H190.923C191.101 0.0383572 191.204 0.0255715 191.382 0.051143C191.382 0.191786 191.382 0.60093 191.382 0.754359L191.344 27.5021C191.344 27.7195 191.293 28.5122 191.318 29.1387C191.561 28.704 191.995 27.9752 192.148 27.7323L209.464 0.115072H209.924C210.141 0.127857 211.073 0.102286 211.457 0.115072C211.457 0.370787 211.457 0.409144 211.457 0.818287L211.405 32.9872H209.094L209.145 5.88144C209.145 5.19101 209.145 4.33437 209.145 3.79737C208.89 4.23208 208.405 4.92251 208.021 5.5618L191.306 32.9872H189.135L189.326 0V0.0255715Z" fill="white"/>
<path d="M242.768 0.0893555H244.799L244.837 32.9999H242.539C242.424 25.3284 242.462 17.657 242.666 9.98552C242.705 8.94987 242.781 5.68951 242.768 4.99908C242.36 6.09865 242.028 6.69958 241.734 7.41559L233.153 27.5787C232.974 28.0006 232.335 29.3048 231.671 30.5834C230.969 29.4454 230.088 27.7961 229.999 27.5915L221.622 8.34894C221.213 7.4028 220.664 6.29044 220.345 5.65115C220.345 6.40551 220.383 7.59459 220.383 8.61744L220.306 32.9999H218.097L218.033 0.997143C218.033 0.754214 218.033 0.306713 218.033 0.102141C218.25 0.102141 218.455 0.102141 218.646 0.102141C219.463 0.102141 219.885 0.102141 220.434 0.102141C220.536 0.34507 220.6 0.511285 220.753 0.869286C224.393 8.88595 227.879 16.8387 231.212 24.7403C231.263 24.8426 231.429 25.2645 231.62 25.5841C231.774 25.2773 231.965 24.7914 231.978 24.7403L242.768 0.0893555Z" fill="white"/>
<path d="M276.136 0.0385742H277.579L286.735 19.9332C286.825 20.1378 287.042 20.5597 287.182 20.7898C287.233 20.6492 287.463 20.0099 287.501 19.9076L295.253 0.805719C295.47 0.281503 295.534 0.204789 295.636 0.0385742H298.203C298.152 0.183479 298.045 0.443456 297.883 0.818505C294.091 9.84524 290.285 18.987 286.48 28.2311C285.548 30.4942 283.977 32.0924 281.781 33.0002H278.448C277.873 32.4504 277.694 31.9006 277.924 31.3764C278.116 30.9417 278.563 30.6988 279.022 30.7627C283.415 31.3636 284.909 26.748 285.867 23.4365C282.598 16.366 278.741 7.72281 275.293 0.0385742C275.664 0.0641457 275.881 0.0385742 276.136 0.0385742Z" fill="white"/>
<path d="M361.286 0H361.35C363.431 0 365.513 0.473072 367.288 1.57265C368.935 2.59551 370.238 3.96358 371.208 5.75358C371.757 6.77644 371.821 8.10616 371.821 9.26966C371.106 9.41031 370.57 9.47423 369.867 9.58931C369.867 9.25688 369.842 8.9628 369.688 8.5153C368.207 4.15537 365.385 1.98179 361.209 1.99458C357.378 1.99458 353.586 5.06315 353.241 8.91166C352.871 12.7985 352.807 17.3503 353.024 22.554C353.458 32.9616 366.956 34.1251 369.714 24.3568C369.816 24.0244 369.893 23.692 369.957 23.4363C370.429 23.4746 371.004 23.6408 371.987 23.8838V25.2007C371.987 25.4564 371.936 25.7249 371.834 25.9678C370.429 29.3433 368.105 31.6447 364.874 32.8849C364.644 32.9744 364.402 33.0128 364.159 33.0128H358.732C358.489 33.0128 358.234 32.9744 358.017 32.8849C353.701 31.21 351.261 28.3843 350.674 24.408C350.074 20.2526 350.074 15.4452 350.649 9.98566C350.955 7.13444 351.76 4.98644 353.075 3.51608C354.096 2.36536 355.297 1.53429 356.689 0.907788C358.081 0.281286 359.715 0 361.286 0Z" fill="white"/>
<path d="M272.97 33.0002H270.658L270.697 2.31444H253.917V33.0002H251.58L251.618 0.716219C251.618 0.486075 251.618 0.255932 251.618 0.0385742C251.81 0.0385742 252.078 0.0385742 252.308 0.0385742H272.638C272.765 0.0385742 272.919 0.0385742 273.034 0.0385742V0.434932L272.97 33.0002Z" fill="white"/>
<path d="M320.103 33H317.779L317.728 3.01747C317.728 2.83847 317.728 2.55718 317.728 2.32704C317.536 2.32704 317.243 2.32704 317.038 2.32704H305.903C305.622 2.32704 305.303 2.30147 305.124 2.32704C305.124 2.5444 305.124 2.86404 305.124 3.13254C305.418 10.7784 305.252 17.3119 304.626 22.7331C304.128 27.1314 302.251 31.7342 297.475 33.0256H295.1C294.512 32.3991 294.333 31.8749 294.55 31.453C294.729 31.095 295.023 30.9032 295.432 30.8648C301.842 30.4557 302.519 22.4262 302.634 17.5293C302.774 11.8396 302.8 6.34176 302.685 1.0229C302.685 0.703252 302.685 0.332465 302.672 0.0639648C302.915 0.0639648 303.298 0.0639648 303.617 0.0639648H320.141L320.116 33.0256L320.103 33Z" fill="white"/>
<path d="M340.535 33H326.705L326.654 0.907788C326.654 0.652073 326.654 0.217358 326.654 0C326.884 0 327.318 0 327.574 0C327.574 0 327.586 0 327.599 0C327.599 0 328.787 0.0127857 329.119 0.0255715C329.119 0.281286 329.119 0.613716 329.119 0.818287L329.068 13.2077C329.068 13.489 329.068 13.8342 329.068 14.0643C329.336 14.0643 329.617 14.0387 329.911 14.026C338.3 13.9365 348.108 12.5045 348.133 23.692C348.133 28.4099 345.605 31.5041 340.522 33H340.535ZM329.081 16.2635V30.7881H338.811C342.681 30.7881 345.809 27.6939 345.809 23.8838V23.1678C345.809 19.3576 342.681 16.2635 338.811 16.2635H329.081Z" fill="white"/>
<path d="M163.583 32.9998H162.076C155.691 32.9998 149.944 28.7933 148.348 22.605C148.335 22.5539 148.323 22.5027 148.31 22.4516C145.59 11.6093 150.545 0.357808 163.097 0.447308C176.301 0.549594 180.975 15.0998 176.455 24.9448C174.169 29.9312 169.061 32.9998 163.583 32.9998ZM162.855 28.4992C168.129 28.4992 172.343 23.5767 172.343 17.0048C172.343 10.4202 168.078 5.08853 162.804 5.08853C157.53 5.08853 153.265 10.4202 153.265 17.0048C153.265 23.5895 157.594 28.4992 162.855 28.4992Z" fill="white"/>
<path d="M14.8642 32.9744H11.5568C11.2886 32.936 10.9055 32.936 10.5862 32.8721L7.15114 32.1944C6.85744 32.1433 6.56373 32.0921 6.33387 32.041C6.33387 31.862 6.33387 31.4528 6.33387 31.2099L6.28279 27.7961C6.28279 27.6555 6.27002 27.1057 6.27002 26.9395C6.51265 27.029 7.04899 27.2208 7.07453 27.2336C13.7915 29.5606 23.4966 28.3076 23.9691 19.447C23.9691 19.268 24.0202 19.0251 24.0202 18.8717C23.8669 18.8078 23.4966 18.7055 23.2923 18.616L19.8189 17.1584C19.3592 16.9666 18.7334 16.7365 18.478 16.647C18.5164 16.8643 18.7207 17.5292 18.8867 18.0278L20.1892 21.8763C20.3041 22.2088 20.4574 22.6435 20.4957 22.7969C20.3425 22.7458 19.87 22.5923 19.5763 22.49C13.0764 20.227 7.13838 17.9639 1.64732 15.8415C0.715114 15.4323 0.166009 15.1638 0 15.0615C0.217088 15.0615 0.881123 15.1638 1.77502 15.2789L14.5321 16.8899C14.6726 16.9027 15.0685 16.9666 15.209 16.9794C15.1706 16.9155 14.928 16.4296 14.8897 16.3657L12.0037 10.9573C11.9654 10.8934 11.8122 10.5993 11.6972 10.3692C11.9015 10.4203 12.2974 10.5354 12.3357 10.5482L23.1135 13.4122C23.3434 13.4761 23.918 13.5912 24.1607 13.6423C24.1479 13.425 23.9308 12.6578 23.8669 12.53C20.7383 5.43386 14.2001 4.28315 7.17668 6.4823C6.98514 6.54622 6.72974 6.63572 6.62758 6.67408C6.62758 6.52065 6.62758 6.26494 6.64035 6.08594L6.75528 2.50593C6.75528 2.30136 6.78082 1.96893 6.78082 1.82829C6.90852 1.77714 7.17668 1.71321 7.40654 1.6365C21.4024 -2.83851 32.5505 7.36451 29.3197 21.5439C27.7618 28.4098 23.1774 32.1944 15.5665 32.9232C15.3367 32.9488 15.1068 32.9488 14.8642 32.9488V32.9744Z" fill="white"/>
<path d="M61.3213 33H55.843L55.8813 20.0097C55.8813 19.7796 55.8685 19.3321 55.8685 19.1019C55.6514 19.1019 55.2683 19.1019 54.9874 19.1019C54.9874 19.1019 54.9746 19.1019 54.9619 19.1019H42.1536C41.7833 19.1019 41.3491 19.0763 41.1448 19.0891C41.1448 19.3065 41.1448 19.8051 41.1448 20.0992L41.1959 33.0128H35.6027L35.5771 1.44481C35.5771 1.26581 35.5771 1.02288 35.5771 0.89502C35.7687 0.89502 35.9475 0.89502 36.1518 0.89502L40.6468 1.07402C40.8639 1.07402 41.0682 1.07402 41.2981 1.08681C41.2981 1.27859 41.2981 1.52152 41.2981 1.73888L41.2342 13.5401C41.2342 13.7575 41.2214 14.0643 41.2342 14.205C41.413 14.2178 41.6812 14.205 41.8982 14.205H55.0385C55.3066 14.2178 55.6387 14.2178 55.843 14.205C55.843 14.0515 55.8174 13.6808 55.8174 13.4378L55.7919 1.52152C55.7919 1.31695 55.7919 1.01009 55.7919 0.89502C55.9196 0.89502 56.2005 0.89502 56.4049 0.907805L60.7466 1.04845C60.9765 1.04845 61.1808 1.07402 61.3596 1.07402C61.3596 1.25302 61.3596 1.49595 61.3596 1.68774L61.3085 33.0128L61.3213 33Z" fill="white"/>
<path d="M89.6701 33H68.8296L68.9062 1.70047C68.9062 1.48311 68.9062 1.20182 68.9062 1.02282C69.0594 1.02282 69.3404 1.02282 69.583 1.02282L88.4697 0.97168C88.6102 0.97168 88.8273 0.97168 88.9805 0.97168C88.9805 1.11232 88.9805 1.34247 88.9805 1.48311L89.0188 5.24212C89.0188 5.4339 89.0188 5.68962 89.0188 5.83026C88.8911 5.83026 88.6485 5.83026 88.4569 5.83026H74.4867V14.1921H86.1711C86.2988 14.1921 86.733 14.2049 86.9501 14.2177C86.9501 14.4351 86.9501 14.8826 86.9501 14.9721C86.9501 14.9721 86.9501 14.9849 86.9501 14.9976L86.8862 18.4114C86.8862 18.6416 86.8862 18.9868 86.8862 19.1402C86.6564 19.1402 86.401 19.1402 86.1456 19.1402L75.1762 19.1019C74.9464 19.1019 74.5888 19.1019 74.4611 19.1019C74.4483 19.3064 74.4611 19.5749 74.4611 19.8179L74.4867 28.2181H89.8361L89.6701 33.0127V33Z" fill="white"/>
<path d="M101.457 32.9999H95.8379V1.00999C100.754 0.856566 105.364 0.971638 109.68 1.38078C118.441 2.19907 122.106 13.4249 114.329 18.1557C111.06 20.1502 107.063 20.9174 102.351 20.4699C102.095 20.4443 101.763 20.4571 101.584 20.4443C101.584 20.6233 101.584 20.9174 101.584 21.1731L101.457 32.9999ZM101.546 5.75351V15.6752H106.207C109.744 15.6752 112.605 13.5912 112.605 11.034V10.3947C112.605 7.83758 109.744 5.75351 106.207 5.75351H101.546Z" fill="white"/>
<path d="M130.049 32.9999H124.52L124.558 1.57252C124.558 1.41909 124.558 1.15059 124.558 0.984375C124.788 0.984375 124.966 0.984375 125.132 0.984375L144.747 1.00995C144.99 1.00995 145.309 1.02273 145.488 1.02273C145.488 1.25288 145.513 1.4958 145.526 1.75152L145.679 5.83017H130.074L130.049 32.9999Z" fill="white"/>
</svg>
