<svg width="16" height="15" viewBox="0 0 16 15" fill="none" xmlns="http://www.w3.org/2000/svg">
<path d="M15.3322 10.334L13.9035 8.99458C13.4776 8.59852 12.9028 8.37523 12.303 8.37283C11.7031 8.37044 11.1263 8.58914 10.6968 8.98179C10.4677 9.19785 10.1653 9.33228 9.8419 9.36194C9.51845 9.39161 9.19408 9.31466 8.92461 9.14434C7.86103 8.47889 6.94733 7.62395 6.23546 6.62812C6.05699 6.37267 5.97788 6.06736 6.01147 5.76361C6.04507 5.45987 6.18931 5.17627 6.41989 4.96058C6.83492 4.55759 7.06519 4.0183 7.06143 3.45814C7.05767 2.89798 6.82017 2.36146 6.39976 1.9634L4.97109 0.624009C4.54337 0.224389 3.96413 0 3.36027 0C2.75641 0 2.17717 0.224389 1.74945 0.624009L1.33838 1.01C-0.804622 3.01908 -0.644222 7.24302 3.81452 11.4207C6.50301 13.9418 9.20904 14.9975 11.4033 14.9975C12.0493 15.0176 12.693 14.9171 13.2971 14.7016C13.9011 14.4862 14.4534 14.1602 14.9218 13.7427L15.3335 13.3567C15.7605 12.9555 16.0002 12.4119 16 11.8451C15.9998 11.2783 15.7596 10.7348 15.3322 10.334ZM14.4139 12.4959L14.0022 12.8818C12.3138 14.4648 8.58692 14.1756 4.73147 10.5604C0.876011 6.94531 0.566899 3.4489 2.25532 1.86599L2.66379 1.48061C2.84771 1.30881 3.09675 1.21235 3.35637 1.21235C3.616 1.21235 3.86504 1.30881 4.04895 1.48061L5.47762 2.82C5.65819 2.99013 5.76069 3.21969 5.76324 3.45969C5.76579 3.69969 5.66818 3.93112 5.49126 4.10459C5.05245 4.5186 4.77872 5.06141 4.71595 5.64209C4.65317 6.22276 4.80515 6.80603 5.14643 7.29416C5.95528 8.42893 6.99541 9.40262 8.20703 10.1592C8.72614 10.4792 9.34665 10.6226 9.96492 10.5653C10.5832 10.508 11.1618 10.2536 11.604 9.84448C11.7887 9.67665 12.0362 9.58345 12.2934 9.58493C12.5506 9.58641 12.797 9.68245 12.9794 9.85239L14.4081 11.1918C14.5002 11.2769 14.5734 11.3782 14.6236 11.4899C14.6737 11.6016 14.6998 11.7215 14.7004 11.8427C14.7009 11.9639 14.6759 12.084 14.6267 12.1961C14.5776 12.3082 14.5052 12.4101 14.4139 12.4959Z" fill="white"/>
</svg>
