<svg width="16" height="16" viewBox="0 0 16 16" fill="none" xmlns="http://www.w3.org/2000/svg">
<path d="M12.76 12.2H4.76727L2.81451 1.45982C2.79105 1.33079 2.72305 1.21409 2.62236 1.13006C2.52168 1.04603 2.39469 1 2.26355 1H1" stroke="#414141" stroke-width="1.5" stroke-linecap="round" stroke-linejoin="round"/>
<path d="M5.48008 15C6.25328 15 6.88008 14.3732 6.88008 13.6C6.88008 12.8268 6.25328 12.2 5.48008 12.2C4.70688 12.2 4.08008 12.8268 4.08008 13.6C4.08008 14.3732 4.70688 15 5.48008 15Z" stroke="#414141" stroke-width="1.5" stroke-linecap="round" stroke-linejoin="round"/>
<path d="M12.7599 15C13.5331 15 14.1599 14.3732 14.1599 13.6C14.1599 12.8268 13.5331 12.2 12.7599 12.2C11.9867 12.2 11.3599 12.8268 11.3599 13.6C11.3599 14.3732 11.9867 15 12.7599 15Z" stroke="#414141" stroke-width="1.5" stroke-linecap="round" stroke-linejoin="round"/>
<path d="M4.25841 9.40002H13.0473C13.3096 9.40002 13.5636 9.30796 13.765 9.1399C13.9663 8.97184 14.1023 8.73843 14.1493 8.48037L15.0002 3.80002H3.24023" stroke="#414141" stroke-width="1.5" stroke-linecap="round" stroke-linejoin="round"/>
</svg>
