<svg width="16" height="15" viewBox="0 0 16 15" fill="none" xmlns="http://www.w3.org/2000/svg">
<path d="M10.8766 7.00222L8.21943 4.44666C7.96257 4.19962 7.53743 4.19962 7.28057 4.44666C7.02371 4.6937 7.02371 5.10259 7.28057 5.34962L8.804 6.81481H0.664286C0.301143 6.81481 0 7.10444 0 7.4537C0 7.80296 0.301143 8.09259 0.664286 8.09259H8.804L7.28057 9.55777C7.02371 9.80481 7.02371 10.2137 7.28057 10.4607C7.41343 10.5885 7.58171 10.6481 7.75 10.6481C7.91829 10.6481 8.08657 10.5885 8.21943 10.4607L10.8766 7.90518C11.1334 7.65814 11.1334 7.24925 10.8766 7.00222Z" fill="#414141"/>
<path d="M13.0641 0H10.407C10.0438 0 9.74268 0.28963 9.74268 0.638889C9.74268 0.988148 10.0438 1.27778 10.407 1.27778H13.0641C13.6752 1.27778 14.1712 1.75481 14.1712 2.34259V12.5648C14.1712 13.1526 13.6752 13.6296 13.0641 13.6296H10.407C10.0438 13.6296 9.74268 13.9193 9.74268 14.2685C9.74268 14.6178 10.0438 14.9074 10.407 14.9074H13.0641C14.4104 14.9074 15.4998 13.8596 15.4998 12.5648V2.34259C15.4998 1.04778 14.4104 0 13.0641 0Z" fill="#414141"/>
</svg>
