<svg width="292" height="26" viewBox="0 0 292 26" fill="none" xmlns="http://www.w3.org/2000/svg">
<path d="M148.26 0.02H149.51C149.65 0.03 149.73 0.02 149.87 0.04C149.87 0.15 149.87 0.47 149.87 0.59L149.84 21.51C149.84 21.68 149.8 22.3 149.82 22.79C150.01 22.45 150.35 21.88 150.47 21.69L164.03 0.09H164.39C164.56 0.1 165.29 0.08 165.59 0.09C165.59 0.29 165.59 0.32 165.59 0.64L165.55 25.8H163.74L163.78 4.6C163.78 4.06 163.78 3.39 163.78 2.97C163.58 3.31 163.2 3.85 162.9 4.35L149.81 25.8H148.11L148.26 0V0.02Z" fill="#646765"/>
<path d="M190.11 0.0700073H191.7L191.73 25.81H189.93C189.84 19.81 189.87 13.81 190.03 7.81001C190.06 7.00001 190.12 4.45001 190.11 3.91001C189.79 4.77001 189.53 5.24001 189.3 5.80001L182.58 21.57C182.44 21.9 181.94 22.92 181.42 23.92C180.87 23.03 180.18 21.74 180.11 21.58L173.55 6.53001C173.23 5.79001 172.8 4.92001 172.55 4.42001C172.55 5.01001 172.58 5.94001 172.58 6.74001L172.52 25.81H170.79L170.74 0.780007C170.74 0.590007 170.74 0.240007 170.74 0.0800073C170.91 0.0800073 171.07 0.0800073 171.22 0.0800073C171.86 0.0800073 172.19 0.0800073 172.62 0.0800073C172.7 0.270007 172.75 0.400007 172.87 0.680007C175.72 6.95001 178.45 13.17 181.06 19.35C181.1 19.43 181.23 19.76 181.38 20.01C181.5 19.77 181.65 19.39 181.66 19.35L190.11 0.0700073Z" fill="#646765"/>
<path d="M216.24 0.0299988H217.37L224.54 15.59C224.61 15.75 224.78 16.08 224.89 16.26C224.93 16.15 225.11 15.65 225.14 15.57L231.21 0.629999C231.38 0.219999 231.43 0.159999 231.51 0.0299988H233.52C233.48 0.143332 233.397 0.346665 233.27 0.639999C230.3 7.7 227.32 14.85 224.34 22.08C223.61 23.85 222.38 25.1 220.66 25.81H218.05C217.6 25.38 217.46 24.95 217.64 24.54C217.79 24.2 218.14 24.01 218.5 24.06C221.94 24.53 223.11 20.92 223.86 18.33C221.3 12.8 218.28 6.04 215.58 0.0299988C215.87 0.0499988 216.04 0.0299988 216.24 0.0299988Z" fill="#646765"/>
<path d="M282.92 0H282.97C284.6 0 286.23 0.37 287.62 1.23C288.91 2.03 289.93 3.1 290.69 4.5C291.12 5.3 291.17 6.34 291.17 7.25C290.61 7.36 290.19 7.41 289.64 7.5C289.64 7.24 289.62 7.01 289.5 6.66C288.34 3.25 286.13 1.55 282.86 1.56C279.86 1.56 276.89 3.96 276.62 6.97C276.33 10.01 276.28 13.57 276.45 17.64C276.79 25.78 287.36 26.69 289.52 19.05C289.6 18.79 289.66 18.53 289.71 18.33C290.08 18.36 290.53 18.49 291.3 18.68V19.71C291.3 19.91 291.26 20.12 291.18 20.31C290.08 22.95 288.26 24.75 285.73 25.72C285.55 25.79 285.36 25.82 285.17 25.82H280.92C280.73 25.82 280.53 25.79 280.36 25.72C276.98 24.41 275.07 22.2 274.61 19.09C274.14 15.84 274.14 12.08 274.59 7.81C274.83 5.58 275.46 3.9 276.49 2.75C277.29 1.85 278.23 1.2 279.32 0.71C280.41 0.22 281.69 0 282.92 0Z" fill="#646765"/>
<path d="M213.76 25.81H211.95L211.98 1.81H198.84V25.81H197.01L197.04 0.559999C197.04 0.379999 197.04 0.199999 197.04 0.0299988C197.19 0.0299988 197.4 0.0299988 197.58 0.0299988H213.5C213.6 0.0299988 213.72 0.0299988 213.81 0.0299988V0.339999L213.76 25.81Z" fill="#646765"/>
<path d="M250.67 25.81H248.85L248.81 2.35999C248.81 2.21999 248.81 1.99999 248.81 1.81999C248.66 1.81999 248.43 1.81999 248.27 1.81999H239.55C239.33 1.81999 239.08 1.79999 238.94 1.81999C238.94 1.98999 238.94 2.23999 238.94 2.44999C239.17 8.42999 239.04 13.54 238.55 17.78C238.16 21.22 236.69 24.82 232.95 25.83H231.09C230.63 25.34 230.49 24.93 230.66 24.6C230.8 24.32 231.03 24.17 231.35 24.14C236.37 23.82 236.9 17.54 236.99 13.71C237.1 9.25999 237.12 4.95999 237.03 0.799988C237.03 0.549988 237.03 0.259988 237.02 0.0499878C237.21 0.0499878 237.51 0.0499878 237.76 0.0499878H250.7L250.68 25.83L250.67 25.81Z" fill="#646765"/>
<path d="M266.67 25.81H255.84L255.8 0.71C255.8 0.51 255.8 0.17 255.8 0C255.98 0 256.32 0 256.52 0C256.52 0 256.53 0 256.54 0C256.54 0 257.47 0.01 257.73 0.02C257.73 0.22 257.73 0.48 257.73 0.64L257.69 10.33C257.69 10.55 257.69 10.82 257.69 11C257.9 11 258.12 10.98 258.35 10.97C264.92 10.9 272.6 9.78 272.62 18.53C272.62 22.22 270.64 24.64 266.66 25.81H266.67ZM257.7 12.72V24.08H265.32C268.35 24.08 270.8 21.66 270.8 18.68V18.12C270.8 15.14 268.35 12.72 265.32 12.72H257.7Z" fill="#646765"/>
<path d="M128.1 25.81H126.92C121.92 25.81 117.42 22.52 116.17 17.68C116.16 17.64 116.15 17.6 116.14 17.56C114.01 9.07999 117.89 0.279994 127.72 0.349994C138.06 0.429994 141.72 11.81 138.18 19.51C136.39 23.41 132.39 25.81 128.1 25.81ZM127.53 22.29C131.66 22.29 134.96 18.44 134.96 13.3C134.96 8.14999 131.62 3.97999 127.49 3.97999C123.36 3.97999 120.02 8.14999 120.02 13.3C120.02 18.45 123.41 22.29 127.53 22.29Z" fill="#0084FF"/>
<path d="M11.64 25.79H9.05C8.84 25.76 8.54 25.76 8.29 25.71L5.6 25.18C5.37 25.14 5.14 25.1 4.96 25.06C4.96 24.92 4.96 24.6 4.96 24.41L4.92 21.74C4.92 21.63 4.91 21.2 4.91 21.07C5.1 21.14 5.52 21.29 5.54 21.3C10.8 23.12 18.4 22.14 18.77 15.21C18.77 15.07 18.81 14.88 18.81 14.76C18.69 14.71 18.4 14.63 18.24 14.56L15.52 13.42C15.16 13.27 14.67 13.09 14.47 13.02C14.5 13.19 14.66 13.71 14.79 14.1L15.81 17.11C15.9 17.37 16.02 17.71 16.05 17.83C15.93 17.79 15.56 17.67 15.33 17.59C10.24 15.82 5.59 14.05 1.29 12.39C0.56 12.07 0.13 11.86 0 11.78C0.17 11.78 0.69 11.86 1.39 11.95L11.38 13.21C11.49 13.22 11.8 13.27 11.91 13.28C11.88 13.23 11.69 12.85 11.66 12.8L9.4 8.57001C9.37 8.52001 9.25 8.29001 9.16 8.11001C9.32 8.15001 9.63 8.24001 9.66 8.25001L18.1 10.49C18.28 10.54 18.73 10.63 18.92 10.67C18.91 10.5 18.74 9.90001 18.69 9.80001C16.24 4.25001 11.12 3.35001 5.62 5.07001C5.47 5.12001 5.27 5.19001 5.19 5.22001C5.19 5.10001 5.19 4.90001 5.2 4.76001L5.29 1.96001C5.29 1.80001 5.31 1.54001 5.31 1.43001C5.41 1.39001 5.62 1.34001 5.8 1.28001C16.76 -2.21999 25.49 5.76001 22.96 16.85C21.74 22.22 18.15 25.18 12.19 25.75C12.01 25.77 11.83 25.77 11.64 25.77V25.79Z" fill="#0084FF"/>
<path d="M48.0199 25.81H43.7299L43.7599 15.65C43.7599 15.47 43.7499 15.12 43.7499 14.94C43.5799 14.94 43.2799 14.94 43.0599 14.94C43.0599 14.94 43.0499 14.94 43.0399 14.94H33.0099C32.7199 14.94 32.3799 14.92 32.2199 14.93C32.2199 15.1 32.2199 15.49 32.2199 15.72L32.2599 25.82H27.8799L27.8599 1.13001C27.8599 0.990012 27.8599 0.800012 27.8599 0.700012C28.0099 0.700012 28.1499 0.700012 28.3099 0.700012L31.8299 0.840012C31.9999 0.840012 32.1599 0.840012 32.3399 0.850012C32.3399 1.00001 32.3399 1.19001 32.3399 1.36001L32.2899 10.59C32.2899 10.76 32.2799 11 32.2899 11.11C32.4299 11.12 32.6399 11.11 32.8099 11.11H43.0999C43.3099 11.12 43.5699 11.12 43.7299 11.11C43.7299 10.99 43.7099 10.7 43.7099 10.51L43.6899 1.19001C43.6899 1.03001 43.6899 0.790012 43.6899 0.700012C43.7899 0.700012 44.0099 0.700012 44.1699 0.710012L47.5699 0.820012C47.7499 0.820012 47.9099 0.840012 48.0499 0.840012C48.0499 0.980012 48.0499 1.17001 48.0499 1.32001L48.0099 25.82L48.0199 25.81Z" fill="#0084FF"/>
<path d="M70.2199 25.81H53.8999L53.9599 1.33001C53.9599 1.16001 53.9599 0.94001 53.9599 0.80001C54.0799 0.80001 54.2999 0.80001 54.4899 0.80001L69.2799 0.76001C69.3899 0.76001 69.5599 0.76001 69.6799 0.76001C69.6799 0.87001 69.6799 1.05001 69.6799 1.16001L69.7099 4.10001C69.7099 4.25001 69.7099 4.45001 69.7099 4.56001C69.6099 4.56001 69.4199 4.56001 69.2699 4.56001H58.3299V11.1H67.4799C67.5799 11.1 67.9199 11.11 68.0899 11.12C68.0899 11.29 68.0899 11.64 68.0899 11.71C68.0899 11.71 68.0899 11.72 68.0899 11.73L68.0399 14.4C68.0399 14.58 68.0399 14.85 68.0399 14.97C67.8599 14.97 67.6599 14.97 67.4599 14.97L58.8699 14.94C58.6899 14.94 58.4099 14.94 58.3099 14.94C58.2999 15.1 58.3099 15.31 58.3099 15.5L58.3299 22.07H70.3499L70.2199 25.82V25.81Z" fill="#0084FF"/>
<path d="M79.4498 25.81H75.0498V0.789985C78.8998 0.669985 82.5098 0.759985 85.8898 1.07999C92.7498 1.71999 95.6198 10.5 89.5298 14.2C86.9698 15.76 83.8398 16.36 80.1498 16.01C79.9498 15.99 79.6898 16 79.5498 15.99C79.5498 16.13 79.5498 16.36 79.5498 16.56L79.4498 25.81ZM79.5198 4.49998V12.26H83.1698C85.9398 12.26 88.1798 10.63 88.1798 8.62999V8.12999C88.1798 6.12999 85.9398 4.49998 83.1698 4.49998H79.5198Z" fill="#0084FF"/>
<path d="M101.84 25.81H97.5098L97.5398 1.22999C97.5398 1.10999 97.5398 0.899989 97.5398 0.769989C97.7198 0.769989 97.8598 0.769989 97.9898 0.769989L113.35 0.789989C113.54 0.789989 113.79 0.799989 113.93 0.799989C113.93 0.979989 113.95 1.16999 113.96 1.36999L114.08 4.55999H101.86L101.84 25.81Z" fill="#0084FF"/>
</svg>
