<svg width="8" height="6" viewBox="0 0 8 6" fill="none" xmlns="http://www.w3.org/2000/svg">
<path d="M1 0.65H0.65V1.35H1V0.65ZM5 1.35C5.1933 1.35 5.35 1.1933 5.35 1C5.35 0.8067 5.1933 0.65 5 0.65V1.35ZM1 1.35H5V0.65H1V1.35Z" fill="white"/>
<path d="M5.35 1C5.35 0.8067 5.1933 0.65 5 0.65C4.8067 0.65 4.65 0.8067 4.65 1L5.35 1ZM4.75251 5.24749C4.8892 5.38417 5.1108 5.38417 5.24749 5.24749L7.47487 3.0201C7.61156 2.88342 7.61156 2.66181 7.47487 2.52513C7.33819 2.38844 7.11658 2.38844 6.9799 2.52513L5 4.50503L3.0201 2.52513C2.88342 2.38844 2.66181 2.38844 2.52513 2.52513C2.38844 2.66181 2.38844 2.88342 2.52513 3.0201L4.75251 5.24749ZM4.65 1L4.65 5L5.35 5L5.35 1L4.65 1Z" fill="white"/>
</svg>
